<svg width="24" height="32" viewBox="0 0 24 32" fill="none" xmlns="http://www.w3.org/2000/svg">
<path fill-rule="evenodd" clip-rule="evenodd" d="M0 2.39062V29.6094C0 30.9219 1.06786 32 2.36786 32H21.6321C22.9321 32 24 30.9219 24 29.6094V8L16 0H2.36786C1.06786 0 0 1.07812 0 2.39062Z" fill="#FF754A"/>
<path opacity="0.5" fill-rule="evenodd" clip-rule="evenodd" d="M16 0V5.72549C16 6.35294 16.4656 8 18.582 8H24L16 0Z" fill="white"/>
<path fill-rule="evenodd" clip-rule="evenodd" d="M17 17C17 14.243 14.757 12 12 12C9.243 12 7 14.243 7 17C5.897 17 5 17.897 5 19V26C5 27.104 5.897 28 7 28H17C18.104 28 19 27.104 19 26V19C19 17.897 18.104 17 17 17ZM12 14C13.654 14 15 15.346 15 17H9C9 15.346 10.346 14 12 14ZM16.997 26H7V19H17L16.997 26ZM11 23.723V24C11 24.5523 11.4477 25 12 25C12.5523 25 13 24.5523 13 24V23.723C13.596 23.376 14 22.741 14 22C14 20.896 13.104 20 12 20C10.896 20 10 20.896 10 22C10 22.738 10.405 23.376 11 23.723Z" fill="white"/>
</svg>
