<svg width="24" height="32" viewBox="0 0 24 32" fill="none" xmlns="http://www.w3.org/2000/svg">
<path fill-rule="evenodd" clip-rule="evenodd" d="M0 2.39062V29.6094C0 30.9219 1.06786 32 2.36786 32H21.6321C22.9321 32 24 30.9219 24 29.6094V8L16 0H2.36786C1.06786 0 0 1.07812 0 2.39062Z" fill="#938FC5"/>
<path fill-rule="evenodd" clip-rule="evenodd" d="M19.0243 18.9964L18.0208 19.9999C16.6946 21.0559 15.2959 21.2407 14 21L18 17C18 16.5 18 16.5 18 16L16 14C15.5 14 15.5 14 15 14L10.9966 17.993C10.7562 16.6962 10.9442 15.3046 12 13.9792L13.0035 12.9758C14.5748 11.6747 16.5055 11.6747 18.0208 12.9758L19.0243 13.9792C20.3252 15.4937 20.3252 17.425 19.0243 18.9964ZM9.00003 23C9.00001 22.5 8.99999 21.5 9.00007 21L13 17C13.5 17 14.5 17 15 17C15 17.5 15 18.5 15 19L11 23C10.5 23 9.50001 23 9.00003 23ZM6 24L8 26C8.5 26 8.5 26 9 26L13.0035 22.0068C13.2442 23.301 13.0561 24.6928 12 26.0206L10.9966 27.024C9.5522 28.3253 7.62185 28.3253 5.97925 27.024L4.97578 26.0206C3.67474 24.3777 3.67474 22.4471 4.97578 21.0033L5.97925 19.9999C7.30571 18.9437 8.70421 18.7602 10 19L6 23C6 23 6 23.5 6 24Z" fill="white"/>
<path opacity="0.5" fill-rule="evenodd" clip-rule="evenodd" d="M16 0V5.72549C16 6.35294 16.4656 8 18.582 8H24L16 0Z" fill="white"/>
</svg>
