<svg width="24" height="32" viewBox="0 0 24 32" fill="none" xmlns="http://www.w3.org/2000/svg">
<path fill-rule="evenodd" clip-rule="evenodd" d="M0 2.39062V29.6094C0 30.9219 1.06786 32 2.36786 32H21.6321C22.9321 32 24 30.9219 24 29.6094V8L16 0H2.36786C1.06786 0 0 1.07812 0 2.39062Z" fill="#FFA42E"/>
<path fill-rule="evenodd" clip-rule="evenodd" d="M6 16H5C4.45 16 4 16.45 4 17V27C4 27.55 4.45 28 5 28H6C6.55 28 7 27.55 7 27V17C7 16.45 6.55 16 6 16ZM11 15H17V16H11V15ZM11 17H17V18H11V17ZM19 16V14C19 12.8954 18.1046 12 17 12H11C9.89543 12 9 12.8954 9 14V16C8.45 16 8 16.45 8 17V27C8 27.55 8.45 28 9 28H19C19.55 28 20 27.55 20 27V17C20 16.45 19.55 16 19 16ZM12 26H10V21H12V26ZM14 26H13V25H14V26ZM14 24H13V23H14V24ZM14 22H13V21H14V22ZM16 26H15V25H16V26ZM16 24H15V23H16V24ZM16 22H15V21H16V22ZM18 26H17V25H18V26ZM18 24H17V23H18V24ZM18 22H17V21H18V22ZM18 18C18 18.5523 17.5523 19 17 19H11C10.4477 19 10 18.5523 10 18V14C10 13.4477 10.4477 13 11 13H17C17.5523 13 18 13.4477 18 14V18Z" fill="white"/>
<path opacity="0.5" fill-rule="evenodd" clip-rule="evenodd" d="M16 0V5.72549C16 6.35294 16.4656 8 18.582 8H24L16 0Z" fill="white"/>
</svg>
