<svg width="24" height="32" viewBox="0 0 24 32" fill="none" xmlns="http://www.w3.org/2000/svg">
<path fill-rule="evenodd" clip-rule="evenodd" d="M0 2.39062V29.6094C0 30.9219 1.06786 32 2.36786 32H21.6321C22.9321 32 24 30.9219 24 29.6094V8L16 0H2.36786C1.06786 0 0 1.07812 0 2.39062Z" fill="#5EC08C"/>
<path fill-rule="evenodd" clip-rule="evenodd" d="M17 22C16.1911 22 15.457 22.3202 14.9174 22.8407L9.97733 20.3706C9.99229 20.2492 10 20.1255 10 20C10 19.8745 9.99229 19.7508 9.97733 19.6294L14.9174 17.1593C15.457 17.6798 16.1911 18 17 18C18.6569 18 20 16.6569 20 15C20 13.3431 18.6569 12 17 12C15.3431 12 14 13.3431 14 15C14 15.1255 14.0077 15.2492 14.0227 15.3706L9.08261 17.8407C8.54305 17.3202 7.80891 17 7 17C5.34315 17 4 18.3431 4 20C4 21.6569 5.34315 23 7 23C7.80891 23 8.54305 22.6798 9.08261 22.1593L14.0227 24.6294C14.0077 24.7508 14 24.8745 14 25C14 26.6569 15.3431 28 17 28C18.6569 28 20 26.6569 20 25C20 23.3431 18.6569 22 17 22ZM18 15C18 15.5523 17.5523 16 17 16C16.4477 16 16 15.5523 16 15C16 14.4477 16.4477 14 17 14C17.5523 14 18 14.4477 18 15ZM7 21C7.55228 21 8 20.5523 8 20C8 19.4477 7.55228 19 7 19C6.44772 19 6 19.4477 6 20C6 20.5523 6.44772 21 7 21ZM18 25C18 25.5523 17.5523 26 17 26C16.4477 26 16 25.5523 16 25C16 24.4477 16.4477 24 17 24C17.5523 24 18 24.4477 18 25Z" fill="white"/>
<path opacity="0.5" fill-rule="evenodd" clip-rule="evenodd" d="M16 0V5.72549C16 6.35294 16.4656 8 18.582 8H24L16 0Z" fill="white"/>
</svg>
