<svg width="24" height="32" viewBox="0 0 24 32" fill="none" xmlns="http://www.w3.org/2000/svg">
<path fill-rule="evenodd" clip-rule="evenodd" d="M0 2.39062V29.6094C0 30.9219 1.06786 32 2.36786 32H21.6321C22.9321 32 24 30.9219 24 29.6094V8L16 0H2.36786C1.06786 0 0 1.07812 0 2.39062Z" fill="#49A5F1"/>
<path d="M14.9131 12C17.1336 12 18.9986 13.1464 19 14.6621C19 15.9454 17.8408 16.903 16.416 16.903C15.8243 16.903 15.0154 16.4474 15.0154 16.1053C15.0154 15.9213 15.0954 15.8061 15.2693 15.7327L15.4669 15.6639C15.9666 15.474 16.3555 15.0665 16.4206 14.6901C16.5099 14.1784 15.9074 13.8374 14.9048 13.825C12.8814 13.7984 10.7361 15.0816 10.815 16.4912C10.8607 17.3037 11.3837 17.8519 12.6661 18.566L12.8545 18.6691L13.2443 18.8739L14.1865 19.3559C16.3652 20.5043 17.2791 21.4631 17.2427 23.1636C17.1821 25.8501 13.6674 28 10.0921 28C7.05814 28 4.73264 26.3983 5.0248 24.2856C5.25707 22.6161 7.23166 21.1784 9.24146 21.1714C11.0827 21.1649 12.4121 22.1901 12.4121 23.4041C12.4121 24.4604 11.597 25.2414 10.3617 25.2414C9.61951 25.2414 9.00266 24.8842 9.00266 24.4505C9.00266 24.2748 9.05864 24.1725 9.19329 24.0545L9.33982 23.9353C9.44104 23.8481 9.47273 23.7862 9.47273 23.6691C9.47273 23.4042 9.25543 23.2275 8.91556 23.2275C8.21754 23.2275 7.41548 23.8546 7.41548 24.4682C7.41548 25.4349 8.5162 26.0567 10.2235 26.0567C12.4089 26.0567 14.3172 24.6159 14.3172 22.8932C14.3172 22.0128 13.7272 21.4772 12.1765 20.7184L11.0896 20.1986C9.0376 19.1873 8.16206 18.3151 8.16206 16.7386C8.16206 14.3021 11.5494 12 14.9131 12Z" fill="white"/>
<path opacity="0.5" fill-rule="evenodd" clip-rule="evenodd" d="M16 0V5.72549C16 6.35294 16.4656 8 18.582 8H24L16 0Z" fill="white"/>
</svg>
