<svg width="20" height="20" viewBox="0 0 20 20" fill="none" xmlns="http://www.w3.org/2000/svg">
<path fill-rule="evenodd" clip-rule="evenodd" d="M0 2C0 0.895431 0.895431 0 2 0H18C19.1046 0 20 0.895431 20 2V18C20 19.1046 19.1046 20 18 20H2C0.895431 20 0 19.1046 0 18V2ZM3 2C2.44772 2 2 2.44772 2 3V17C2 17.5523 2.44772 18 3 18H17C17.5523 18 18 17.5523 18 17V3C18 2.44772 17.5523 2 17 2H3ZM6 8C5.44772 8 5 8.44771 5 9V15C5 15.5523 5.44772 16 6 16C6.55228 16 7 15.5523 7 15V9C7 8.44771 6.55228 8 6 8ZM9 5C9 4.44771 9.44771 4 10 4C10.5523 4 11 4.44772 11 5V15C11 15.5523 10.5523 16 10 16C9.44771 16 9 15.5523 9 15V5ZM14 11C13.4477 11 13 11.4477 13 12V15C13 15.5523 13.4477 16 14 16C14.5523 16 15 15.5523 15 15V12C15 11.4477 14.5523 11 14 11Z" fill="#414141"/>
</svg>
